PathFileType	4	(X/Y/Z)	rand1.trc
DataRate	CameraRate	NumFrames	NumMarkers	Units	OrigDataRate	OrigDataStartFrame	OrigNumFrames
100.0	100.0	5	17	mm	100.0	1030	1373
Frame#	Time	STER			XIPH			T10			T1			CLAV_SC			CLAV_AC			SCAP_AA			SCAP_CP			SCAP_TS			SCAP_IA			DELT			ARMl			EPICm			EPICl			LARM_elb			STYLr			STYLu		
		X1	Y1	Z1	X2	Y2	Z2	X3	Y3	Z3	X4	Y4	Z4	X5	Y5	Z5	X6	Y6	Z6	X7	Y7	Z7	X8	Y8	Z8	X9	Y9	Z9	X10	Y10	Z10	X11	Y11	Z11	X12	Y12	Z12	X13	Y13	Z13	X14	Y14	Z14	X15	Y15	Z15	X16	Y16	Z16	X17	Y17	Z17

1030	10.290000000000001	403.397216796875	82.6524887084961	1438.400634765625	403.09002685546875	136.86524963378906	1275.1026611328125	380.3533935546875	-94.5343246459961	1238.606689453125	377.5384826660156	-77.10519409179688	1469.1636962890625	438.1192626953125	72.61028289794922	1442.275634765625	585.27001953125	-3.954650402069092	1456.6156005859375	588.754638671875	-50.0901985168457	1439.773193359375	530.9974365234375	-55.11362075805664	1469.9189453125	510.6625671386719	-110.58547973632812	1416.7403564453125	485.73480224609375	-119.91753387451172	1276.2579345703125	650.3359375	-20.688053131103516	1303.658447265625	666.9404907226562	-29.433284759521484	1255.7169189453125	638.8831176757812	15.95417594909668	1095.939208984375	721.4631958007812	-23.494993209838867	1145.712158203125	666.7156982421875	-24.288047790527344	1086.5836181640625	858.8862915039062	138.4676055908203	968.7720336914062	794.3347778320312	119.8718032836914	921.9378051757812
1031	10.3	403.3378601074219	82.72480773925781	1438.3570556640625	403.0193786621094	136.95098876953125	1275.1341552734375	380.26458740234375	-94.3971176147461	1238.5657958984375	377.40118408203125	-77.01750946044922	1469.154052734375	438.08404541015625	72.69129180908203	1442.0985107421875	585.1921997070312	-4.106700420379639	1456.6025390625	588.5415649414062	-50.2619514465332	1439.765869140625	530.8287963867188	-55.18251037597656	1469.96875	510.3203430175781	-110.60546112060547	1416.8380126953125	485.4879150390625	-119.86591339111328	1276.2742919921875	650.5781860351562	-21.281436920166016	1303.8067626953125	666.21337890625	-30.240772247314453	1255.43017578125	638.0414428710938	14.868339538574219	1095.8018798828125	720.5269165039062	-25.00012969970703	1145.3076171875	665.5560302734375	-25.576383590698242	1086.60791015625	858.952880859375	133.639404296875	966.187255859375	793.9227905273438	115.25643157958984	919.827880859375
1032	10.31	402.48760986328125	82.61730194091797	1438.20947265625	403.12738037109375	137.05892944335938	1275.123046875	380.20013427734375	-94.28528594970703	1238.537841796875	377.2480773925781	-76.9248046875	1469.13623046875	437.8089294433594	72.65147399902344	1442.11279296875	585.0858154296875	-4.249453544616699	1456.501953125	588.2330322265625	-50.449832916259766	1439.7490234375	530.654541015625	-55.24751663208008	1469.9632568359375	510.1128234863281	-110.61661529541016	1416.769287109375	485.3324279785156	-119.76595306396484	1276.231689453125	650.2622680664062	-21.86551284790039	1303.674560546875	665.7135620117188	-31.0238037109375	1255.2593994140625	637.491455078125	13.993326187133789	1095.628173828125	719.62841796875	-26.467470169067383	1144.96142578125	664.2521362304688	-26.478443145751953	1086.7132568359375	859.0321655273438	128.86097717285156	963.5841064453125	793.5277709960938	110.63053894042969	917.7382202148438
1033	10.32	403.1751403808594	82.84721374511719	1438.296875	403.0631103515625	137.14599609375	1275.1131591796875	380.14166259765625	-94.16508483886719	1238.5098876953125	377.1123046875	-76.83956146240234	1469.1136474609375	437.6821594238281	72.6910400390625	1442.0111083984375	585.0306396484375	-4.3962178230285645	1456.5142822265625	588.1197509765625	-50.60359191894531	1439.7764892578125	530.4219970703125	-55.32419967651367	1469.9522705078125	509.835205078125	-110.65414428710938	1416.8533935546875	485.17572021484375	-119.69886779785156	1276.2322998046875	649.1715087890625	-22.469249725341797	1303.151123046875	665.286865234375	-31.758708953857422	1255.1044921875	636.7854614257812	13.096522331237793	1095.4677734375	718.7376098632812	-27.872896194458008	1144.63427734375	662.8570556640625	-26.933815002441406	1086.7108154296875	858.798583984375	124.13632202148438	960.9461059570312	792.8992919921875	106.09840393066406	915.6459350585938
1034	10.33	403.10076904296875	82.91229248046875	1438.253662109375	403.0140686035156	137.22576904296875	1275.1180419921875	380.0673828125	-94.09410095214844	1238.4532470703125	376.99627685546875	-76.77334594726562	1469.102783203125	437.3508605957031	72.61420440673828	1442.345703125	584.9714965820312	-4.515458106994629	1456.4449462890625	587.9136352539062	-50.75188446044922	1439.7301025390625	530.307373046875	-55.37269973754883	1469.9599609375	509.617431640625	-110.64173889160156	1416.6502685546875	484.89154052734375	-119.63705444335938	1276.1939697265625	648.813720703125	-23.03950309753418	1303.06005859375	664.7570190429688	-32.51335906982422	1254.9053955078125	635.642333984375	12.027663230895996	1095.01416015625	717.8828735351562	-29.24361801147461	1144.28466796875	661.7327270507812	-28.084033966064453	1086.73876953125	858.7344970703125	119.43883514404297	958.4960327148438	792.3403930664062	101.57103729248047	913.64306640625
